<svg width="918" height="918" viewBox="0 0 918 918" fill="none" xmlns="http://www.w3.org/2000/svg">
<circle cx="459" cy="459" r="459" fill="black"/>
<path d="M641.507 509.414C641.507 509.194 641.772 509.056 641.772 508.837L641.334 314.202C641.334 312.706 640.953 311.279 640.872 309.8C640.953 307.502 641.553 305.345 641.553 303.016C641.553 202.096 559.463 120 458.531 120C357.609 120 275.518 202.096 275.518 303.016C275.518 304.737 275.991 306.297 276.014 307.998C275.784 310.353 275.311 312.585 275.311 314.94L275.386 339.971C275.386 340.179 275.132 340.335 275.132 340.568L275.928 704.178C275.928 711.259 281.677 716.933 288.688 716.933L358.381 716.829L313.425 778.663C310.64 782.558 310.26 787.664 312.431 791.974C314.601 796.281 319.015 799 323.833 799H593.232C593.497 799 593.693 799 593.832 799C600.878 799 606.575 793.28 606.575 786.231C606.575 782.117 604.635 778.446 601.587 776.169L558.177 716.471L629.083 716.345C632.494 716.296 635.761 714.946 638.096 712.542C640.44 710.175 641.864 706.882 641.864 703.544L641.507 509.414ZM301.432 671.446L301.109 510.12C301.109 509.901 301.388 509.716 301.388 509.52L301.109 394.733C328.752 441.943 376.418 475.379 432.748 483.42L301.432 671.446ZM457.513 380.559C457.923 380.559 458.032 380.219 458.442 380.15C458.848 380.219 459.001 380.559 459.39 380.559C466.457 380.531 472.134 374.822 472.134 367.799L472.111 314.531C472.024 295.191 479.451 276.924 493.065 263.186C506.592 249.511 524.629 241.932 543.727 241.897C543.773 241.897 543.853 241.897 543.9 241.897C563.089 241.897 581.08 249.373 594.587 262.996C607.469 275.929 614.388 293.081 615.21 311.279C610.784 394.234 542.571 460.473 458.551 460.473C374.175 460.473 305.707 393.68 301.844 310.284C304.243 272.556 334.656 242.307 372.661 242.243C372.725 242.243 372.771 242.243 372.834 242.243C412.356 242.243 444.583 274.658 444.658 314.583L444.744 367.799C444.747 374.848 450.493 380.559 457.513 380.559ZM615.717 395.275L616.378 676.861L481.417 483.682C538.817 476.451 587.619 442.978 615.717 395.275ZM458.577 145.55C520.492 145.55 573.789 181.86 599.465 234.029C583.242 222.627 564.11 216.33 543.949 216.33C543.856 216.33 543.81 216.33 543.729 216.33C517.687 216.393 493.287 226.648 474.855 245.259C467.994 252.198 462.694 260.211 458.278 268.632C441.815 237.875 409.914 216.69 372.906 216.69C372.837 216.69 372.797 216.69 372.727 216.69C352.382 216.708 333.463 223.189 317.802 234.026C343.372 181.837 396.654 145.55 458.577 145.55ZM568.256 773.453H348.965L390.156 716.826L526.835 716.558L568.256 773.453ZM408.709 691.224L458.574 622.664L508.244 691.005L408.709 691.224ZM468.916 593.421C464.052 586.813 453.094 586.813 448.23 593.421L377.092 691.293L318.695 691.409L457.018 493.343L594.933 690.832L539.739 690.959L468.916 593.421Z" fill="#C2C2E1"/>
<path d="M543.853 330.535C557.35 330.535 568.293 319.593 568.293 306.095C568.293 292.597 557.35 281.655 543.853 281.655C530.355 281.655 519.413 292.597 519.413 306.095C519.413 319.593 530.355 330.535 543.853 330.535Z" fill="#C2C2E1"/>
<path d="M373.292 330.535C386.79 330.535 397.732 319.593 397.732 306.095C397.732 292.597 386.79 281.655 373.292 281.655C359.794 281.655 348.852 292.597 348.852 306.095C348.852 319.593 359.794 330.535 373.292 330.535Z" fill="#C2C2E1"/>
</svg>

